<svg width="24" height="24" viewBox="0 0 24 24" fill="none" xmlns="http://www.w3.org/2000/svg">
<path d="M19.54 5.0802C18.5377 4.08417 17.3464 3.29859 16.0361 2.76966C14.7258 2.24072 13.3229 1.97911 11.91 2.0002C9.25788 1.99357 6.7117 3.04078 4.83165 4.91146C2.9516 6.78213 1.89167 9.32304 1.88504 11.9752C1.87841 14.6274 2.92562 17.1735 4.7963 19.0536C6.66697 20.9336 9.20788 21.9936 11.86 22.0002C12.4315 22.0099 12.9901 21.8296 13.448 21.4875C13.9059 21.1454 14.2373 20.661 14.39 20.1102C14.4874 19.7125 14.4864 19.297 14.3871 18.8997C14.2878 18.5024 14.0932 18.1353 13.82 17.8302C13.7569 17.7583 13.7157 17.6699 13.7013 17.5753C13.6869 17.4807 13.7 17.384 13.739 17.2966C13.7779 17.2092 13.8411 17.1348 13.9211 17.0823C14.001 17.0298 14.0944 17.0013 14.19 17.0002H15.84C17.393 17.0075 18.8912 16.4269 20.0338 15.3752C21.1764 14.3235 21.8789 12.8784 22 11.3302C22.0372 10.1758 21.8382 9.026 21.4152 7.95126C20.9922 6.87653 20.3541 5.89954 19.54 5.0802ZM15.88 15.0002H14.23C13.7482 14.9975 13.2759 15.1346 12.8704 15.395C12.4649 15.6554 12.1437 16.0279 11.9458 16.4672C11.7478 16.9066 11.6816 17.3939 11.7551 17.8701C11.8286 18.3464 12.0388 18.791 12.36 19.1502C12.4226 19.2133 12.4668 19.2923 12.4879 19.3786C12.5091 19.4649 12.5064 19.5553 12.48 19.6402C12.43 19.8502 12.2 19.9802 11.89 20.0002C10.7544 19.9856 9.6348 19.7294 8.60583 19.2486C7.57685 18.7678 6.66205 18.0734 5.92228 17.2116C5.18251 16.3498 4.63472 15.3403 4.31535 14.2504C3.99598 13.1604 3.91236 12.015 4.07004 10.8902C4.35521 9.00015 5.2996 7.27184 6.73618 6.01094C8.17276 4.75004 10.009 4.03781 11.92 4.0002H12C13.1309 3.9854 14.2532 4.19721 15.3009 4.62315C16.3486 5.04908 17.3003 5.68052 18.1 6.4802C18.724 7.1046 19.2143 7.84956 19.541 8.66965C19.8676 9.48974 20.0238 10.3678 20 11.2502C19.8965 12.2733 19.4186 13.222 18.6581 13.9142C17.8977 14.6063 16.9083 14.9931 15.88 15.0002Z" fill="white"/>
<path d="M12 8C12.8284 8 13.5 7.32843 13.5 6.5C13.5 5.67157 12.8284 5 12 5C11.1716 5 10.5 5.67157 10.5 6.5C10.5 7.32843 11.1716 8 12 8Z" fill="white"/>
<path d="M15.2501 7.20016C14.9933 7.34852 14.7862 7.56969 14.6551 7.83572C14.5239 8.10175 14.4745 8.40068 14.5132 8.69475C14.552 8.98881 14.677 9.26481 14.8725 9.48784C15.068 9.71087 15.3253 9.87093 15.6117 9.94779C15.8982 10.0246 16.201 10.0149 16.4819 9.91964C16.7628 9.82443 17.0092 9.64808 17.1899 9.41288C17.3706 9.17768 17.4775 8.89418 17.4971 8.59823C17.5168 8.30228 17.4482 8.00716 17.3001 7.75016C17.2017 7.57936 17.0706 7.42963 16.9143 7.30954C16.758 7.18945 16.5795 7.10134 16.3891 7.05026C16.1987 6.99918 16.0001 6.98613 15.8047 7.01185C15.6093 7.03757 15.4208 7.10156 15.2501 7.20016ZM8.75012 7.20016C8.49312 7.05209 8.198 6.98352 7.90205 7.00314C7.6061 7.02276 7.3226 7.12967 7.0874 7.31037C6.8522 7.49107 6.67585 7.73744 6.58064 8.01835C6.48543 8.29925 6.47563 8.60208 6.55249 8.88855C6.62935 9.17502 6.78941 9.43227 7.01244 9.6278C7.23547 9.82332 7.51146 9.94833 7.80553 9.98703C8.0996 10.0257 8.39853 9.97639 8.66456 9.84523C8.93059 9.71407 9.15176 9.50699 9.30012 9.25016C9.39872 9.07947 9.46271 8.89102 9.48843 8.69558C9.51415 8.50014 9.5011 8.30155 9.45002 8.11116C9.39894 7.92077 9.31083 7.74232 9.19074 7.586C9.07064 7.42969 8.92092 7.29857 8.75012 7.20016ZM6.16012 11.2602C5.91409 11.4263 5.72288 11.6617 5.61071 11.9365C5.49854 12.2114 5.47045 12.5134 5.53 12.8042C5.58954 13.095 5.73405 13.3616 5.94522 13.5703C6.15639 13.779 6.42472 13.9203 6.71624 13.9763C7.00776 14.0324 7.30937 14.0007 7.58286 13.8852C7.85636 13.7698 8.08945 13.5758 8.25262 13.3278C8.41578 13.0798 8.5017 12.7889 8.49947 12.4921C8.49725 12.1952 8.40698 11.9057 8.24012 11.6602C8.13049 11.4965 7.98951 11.3562 7.82532 11.2474C7.66114 11.1386 7.477 11.0634 7.28357 11.0262C7.09014 10.989 6.89125 10.9905 6.69842 11.0307C6.50558 11.0708 6.32262 11.1488 6.16012 11.2602Z" fill="white"/>
</svg>
